<svg width="28" height="27" viewBox="0 0 28 27" fill="none" xmlns="http://www.w3.org/2000/svg">
<path d="M15.9627 26.5514C15.5192 26.5513 15.0856 26.3969 14.7168 26.1077C14.348 25.8184 14.0606 25.4074 13.8908 24.9265C13.7211 24.4456 13.6767 23.9164 13.7632 23.4059C13.8497 22.8954 14.0633 22.4264 14.3769 22.0583L21.7634 13.3905L14.3769 4.72275C14.1626 4.47993 13.9917 4.18949 13.8742 3.86835C13.7566 3.54721 13.6947 3.20182 13.6922 2.85232C13.6896 2.50282 13.7463 2.15622 13.8591 1.83273C13.9719 1.50924 14.1385 1.21536 14.3491 0.968213C14.5597 0.721071 14.8101 0.525623 15.0858 0.393275C15.3615 0.260926 15.6568 0.194328 15.9547 0.197365C16.2525 0.200402 16.5469 0.273014 16.8205 0.410964C17.0942 0.548914 17.3417 0.74944 17.5486 1.00084L26.5211 11.5296C26.9416 12.0232 27.1778 12.6926 27.1778 13.3905C27.1778 14.0885 26.9416 14.7579 26.5211 15.2515L17.5486 25.7802C17.1281 26.2739 16.5576 26.5513 15.9627 26.5514Z" fill="#003366"/>
<path d="M2.50407 26.5514C2.0605 26.5513 1.62691 26.3969 1.25812 26.1077C0.889329 25.8184 0.601898 25.4074 0.432161 24.9265C0.262425 24.4456 0.218004 23.9164 0.304515 23.4059C0.391027 22.8954 0.604586 22.4264 0.918195 22.0583L8.30476 13.3905L0.918195 4.72275C0.703954 4.47993 0.533069 4.18949 0.41551 3.86835C0.29795 3.54721 0.236071 3.20182 0.233483 2.85232C0.230895 2.50282 0.287649 2.15622 0.400435 1.83273C0.51322 1.50924 0.679778 1.21536 0.89039 0.968213C1.101 0.721071 1.35145 0.525623 1.62712 0.393275C1.90279 0.260926 2.19816 0.194328 2.496 0.197365C2.79384 0.200402 3.08818 0.273014 3.36185 0.410964C3.63552 0.548914 3.88303 0.74944 4.08995 1.00084L13.0624 11.5296C13.4829 12.0232 13.7192 12.6926 13.7192 13.3905C13.7192 14.0885 13.4829 14.7579 13.0624 15.2515L4.08995 25.7802C3.66939 26.2739 3.09894 26.5513 2.50407 26.5514Z" fill="#003366"/>
</svg>
