<svg width="16" height="4" viewBox="0 0 16 4" fill="none" xmlns="http://www.w3.org/2000/svg">
<path d="M14.4 3.60039C15.2837 3.60039 16 2.88405 16 2.00039C16 1.11674 15.2837 0.400391 14.4 0.400391C13.5163 0.400391 12.8 1.11674 12.8 2.00039C12.8 2.88405 13.5163 3.60039 14.4 3.60039Z" fill="#6B7280"/>
<path d="M8 3.60039C8.88366 3.60039 9.6 2.88405 9.6 2.00039C9.6 1.11674 8.88366 0.400391 8 0.400391C7.11634 0.400391 6.4 1.11674 6.4 2.00039C6.4 2.88405 7.11634 3.60039 8 3.60039Z" fill="#6B7280"/>
<path d="M1.6 3.60039C2.48366 3.60039 3.2 2.88405 3.2 2.00039C3.2 1.11674 2.48366 0.400391 1.6 0.400391C0.716344 0.400391 0 1.11674 0 2.00039C0 2.88405 0.716344 3.60039 1.6 3.60039Z" fill="#6B7280"/>
</svg>
