<svg width="14" height="15" viewBox="0 0 14 15" fill="none" xmlns="http://www.w3.org/2000/svg">
<g clip-path="url(#clip0_5046_814)">
<path d="M12.7039 3.44737H9.85201V1.97368C9.85201 1.58284 9.70178 1.208 9.43437 0.931632C9.16696 0.655263 8.80427 0.5 8.42609 0.5H5.57424C5.19606 0.5 4.83337 0.655263 4.56596 0.931632C4.29854 1.208 4.14831 1.58284 4.14831 1.97368V3.44737H1.29646C1.10737 3.44737 0.926025 3.525 0.792318 3.66318C0.658612 3.80137 0.583496 3.98879 0.583496 4.18421C0.583496 4.37963 0.658612 4.56705 0.792318 4.70524C0.926025 4.84342 1.10737 4.92105 1.29646 4.92105H2.00942V13.0263C2.00942 13.4172 2.15965 13.792 2.42707 14.0684C2.69448 14.3447 3.05717 14.5 3.43535 14.5H10.565C10.9432 14.5 11.3058 14.3447 11.5733 14.0684C11.8407 13.792 11.9909 13.4172 11.9909 13.0263V4.92105H12.7039C12.893 4.92105 13.0743 4.84342 13.208 4.70524C13.3417 4.56705 13.4168 4.37963 13.4168 4.18421C13.4168 3.98879 13.3417 3.80137 13.208 3.66318C13.0743 3.525 12.893 3.44737 12.7039 3.44737ZM5.57424 1.97368H8.42609V3.44737H5.57424V1.97368ZM6.2872 11.5526C6.2872 11.7481 6.21208 11.9355 6.07838 12.0737C5.94467 12.2118 5.76333 12.2895 5.57424 12.2895C5.38515 12.2895 5.2038 12.2118 5.0701 12.0737C4.93639 11.9355 4.86127 11.7481 4.86127 11.5526V6.39474C4.86127 6.19931 4.93639 6.0119 5.0701 5.87371C5.2038 5.73553 5.38515 5.65789 5.57424 5.65789C5.76333 5.65789 5.94467 5.73553 6.07838 5.87371C6.21208 6.0119 6.2872 6.19931 6.2872 6.39474V11.5526ZM9.13905 11.5526C9.13905 11.7481 9.06394 11.9355 8.93023 12.0737C8.79652 12.2118 8.61518 12.2895 8.42609 12.2895C8.237 12.2895 8.05565 12.2118 7.92195 12.0737C7.78824 11.9355 7.71313 11.7481 7.71313 11.5526V6.39474C7.71313 6.19931 7.78824 6.0119 7.92195 5.87371C8.05565 5.73553 8.237 5.65789 8.42609 5.65789C8.61518 5.65789 8.79652 5.73553 8.93023 5.87371C9.06394 6.0119 9.13905 6.19931 9.13905 6.39474V11.5526Z" fill="#E02424"/>
</g>
<defs>
<clipPath id="clip0_5046_814">
<rect width="14" height="14" fill="white" transform="translate(0 0.5)"/>
</clipPath>
</defs>
</svg>
