<svg width="50" height="44" viewBox="0 0 50 44" fill="none" xmlns="http://www.w3.org/2000/svg">
<path d="M37.2569 9.69341C35.078 3.9106 30.3937 0.248047 23.3179 0.248047C14.3148 0.248047 8.01558 6.9332 7.47422 15.6551C3.13355 17.0434 0 21.4715 0 26.4871C0 32.627 4.82656 37.8137 10.5382 37.8137H15.0523C15.9148 37.8137 16.6148 37.1137 16.6148 36.2512C16.6148 35.3879 15.9148 34.6887 15.0523 34.6887H10.5382C6.51948 34.6887 3.07573 30.9332 3.07573 26.4871C3.07573 22.5582 5.83042 19.0137 9.28589 18.4199L10.7039 18.1754L10.5781 16.7434L10.5664 16.7254C10.5664 9.11445 15.575 3.37383 23.3179 3.37383C29.5242 3.37383 33.0109 6.43164 34.6234 11.6473L34.9578 12.723L36.0835 12.7473C41.8882 12.8691 46.9773 17.5786 46.9773 23.4294C46.9773 28.7543 43.4483 34.6887 38.1054 34.6887H34.5351C33.6726 34.6887 32.9726 35.3887 32.9726 36.2512C32.9726 37.1145 33.6726 37.8137 34.5351 37.8137L38.0937 37.8091C45.9062 37.6028 49.9757 30.1396 49.9757 23.4294C49.9757 16.2169 44.3233 10.4536 37.2569 9.69341ZM26.171 22.1433C26.1625 22.1339 26.1593 22.1261 26.1538 22.1183L25.7585 21.705C25.5421 21.4761 25.2538 21.3628 24.9655 21.3644C24.6772 21.362 24.3905 21.4761 24.1702 21.7049L23.7749 22.1182C23.7671 22.126 23.7655 22.1355 23.7585 22.1433L18.1187 28.3808C17.6819 28.837 17.6819 29.5753 18.1187 30.0331L18.5124 30.3002C18.9492 30.7565 19.6569 30.6088 20.0929 30.1526L23.4187 26.4448V42.1886C23.4187 43.0511 24.1187 43.7511 24.9812 43.7511C25.8437 43.7511 26.5437 43.0511 26.5437 42.1886V26.4596L29.9796 30.2502C30.4164 30.7064 31.1226 30.8542 31.5585 30.3979L31.9523 30.1307C32.3891 29.6729 32.3891 28.9346 31.9523 28.4784L26.171 22.1433Z" fill="#004661"/>
</svg>
