<svg width="40" height="27" viewBox="0 0 40 27" fill="none" xmlns="http://www.w3.org/2000/svg">
<path d="M32.25 10.0667C31.6902 7.22953 30.1627 4.67476 27.9284 2.83874C25.6942 1.00272 22.8918 -0.000653737 20 3.19561e-07C15.1833 3.19561e-07 11 2.73333 8.91667 6.73333C6.46706 6.99805 4.20168 8.15868 2.55581 9.9922C0.909952 11.8257 -0.00028617 14.2028 6.74879e-08 16.6667C6.74879e-08 22.1833 4.48333 26.6667 10 26.6667H31.6667C36.2667 26.6667 40 22.9333 40 18.3333C40 13.9333 36.5833 10.3667 32.25 10.0667ZM23.3333 15V21.6667H16.6667V15H11.6667L19.4167 7.25C19.75 6.91667 20.2667 6.91667 20.6 7.25L28.3333 15H23.3333Z" fill="#003366"/>
</svg>
